# xmcd CD database file
#
# Track frame offsets:
#	150
#	12075
#	35475
#	47550
#
# Disc length: 885 seconds
#
# Revision: 0
# Processed by: cddbd v1.5.1PL2 Copyright (c) Steve Scherf et al.
# Submitted via: CDex 1.51
#
DISCID=25037304
DTITLE=Harry Connick Jr - Recipe For Love [CDS)
DYEAR=1990
DGENRE=Jazz
TTITLE0=Recipe For Love
TTITLE1=A Nightingale Sang in Berkeley Square
TTITLE2=It Had To Be You
TTITLE3=Love Is Here To Stay
EXTD=YEAR: 1990
EXTT0=
EXTT1=
EXTT2=
EXTT3=
PLAYORDER=
